HIERARCHY
ROOT Hips
{
	OFFSET 0.00000 0.00000 0.00000
	CHANNELS 6 Xposition Yposition Zposition Zrotation Yrotation Xrotation 
	JOINT LHipJoint
	{
		OFFSET 0 0 0
		CHANNELS 3 Zrotation Yrotation Xrotation
		JOINT LeftHip
		{
			OFFSET 1.37590 -1.78394 0.89329
			CHANNELS 3 Zrotation Yrotation Xrotation
			JOINT LeftKnee
			{
				OFFSET 2.47928 -6.81178 0.00000
				CHANNELS 3 Zrotation Yrotation Xrotation
				JOINT LeftAnkle
				{
					OFFSET 2.63345 -7.23535 0.00000
					CHANNELS 3 Zrotation Yrotation Xrotation
					JOINT LeftToe
					{
						OFFSET 0.23938 -0.65768 2.27012
						CHANNELS 3 Zrotation Yrotation Xrotation
						End Site
						{
							OFFSET 0.00000 -0.00000 1.18363
						}
					}
				}
			}
		}
	}
	JOINT RHipJoint
	{
		OFFSET 0 0 0
		CHANNELS 3 Zrotation Yrotation Xrotation
		JOINT RightHip
		{
			OFFSET -1.33617 -1.78394 0.89329
			CHANNELS 3 Zrotation Yrotation Xrotation
			JOINT RightKnee
			{
				OFFSET -2.56922 -7.05888 0.00000
				CHANNELS 3 Zrotation Yrotation Xrotation
				JOINT RightAnkle
				{
					OFFSET -2.56568 -7.04915 0.00000
					CHANNELS 3 Zrotation Yrotation Xrotation
					JOINT RightToe
					{
						OFFSET -0.27533 -0.75646 2.18105
						CHANNELS 3 Zrotation Yrotation Xrotation
						End Site
						{
							OFFSET -0.00000 -0.00000 1.15233
						}
					}
				}
			}
		}
	}
	JOINT lowerback
	{
		OFFSET 0 0 0
		CHANNELS 3 Zrotation Yrotation Xrotation
		JOINT Chest
		{
			OFFSET 0.06190 2.15152 -0.00935
			CHANNELS 3 Zrotation Yrotation Xrotation
			JOINT Chest2
			{
				OFFSET 0.06334 2.15332 0.00872
				CHANNELS 3 Zrotation Yrotation Xrotation
				JOINT lowerneck
				{
					OFFSET 0 0 0
					CHANNELS 3 Zrotation Yrotation Xrotation
					JOINT Neck
					{
						OFFSET -0.04202 1.66908 0.23524
						CHANNELS 3 Zrotation Yrotation Xrotation
						JOINT Head
						{
							OFFSET 0.07510 1.69357 -0.24440
							CHANNELS 3 Zrotation Yrotation Xrotation
							End Site
							{
								OFFSET 0.02556 1.71719 -0.11000
							}
						}
					}
				}
				JOINT LeftCollar
				{
					OFFSET 0 0 0
					CHANNELS 3 Zrotation Yrotation Xrotation
					JOINT LeftShoulder
					{
						OFFSET 3.67168 1.26306 -0.41342
CHANNELS 3 Zrotation Xrotation Yrotation
						JOINT LeftElbow
						{
OFFSET 0 -4.685100 -0.000000
CHANNELS 3 Zrotation Xrotation Yrotation
							JOINT LeftWrist
							{
OFFSET 0 -3.396260 -0.000000
CHANNELS 3 Zrotation Xrotation Yrotation
								JOINT lhand
								{
									OFFSET 0 0 0
CHANNELS 3 Zrotation Xrotation Yrotation
									JOINT LFingers
									{
OFFSET 0 -0.486080 -0.000000
CHANNELS 3 Zrotation Xrotation Yrotation
										End Site
										{
OFFSET 0 -0.391890 -0.000000
										}
									}
								}
								JOINT LThumb
								{
OFFSET 0 0.000000 0.000000
CHANNELS 3 Zrotation Xrotation Yrotation
									End Site
									{
OFFSET 0 -0.397870 0.397870
									}
								}
							}
						}
					}
				}
				JOINT RightCollar
				{
					OFFSET 0 0 0
					CHANNELS 3 Zrotation Yrotation Xrotation
					JOINT RightShoulder
					{
						OFFSET -3.04136 1.42992 -0.76390
CHANNELS 3 Zrotation Xrotation Yrotation
						JOINT RightElbow
						{
OFFSET 0 -5.555760 -0.000000
CHANNELS 3 Zrotation Xrotation Yrotation
							JOINT RightWrist
							{
OFFSET 0 -3.327740 -0.000000
CHANNELS 3 Zrotation Xrotation Yrotation
								JOINT rhand
								{
									OFFSET 0 0 0
CHANNELS 3 Zrotation Xrotation Yrotation
									JOINT RFingers
									{
OFFSET 0 -0.507630 -0.000000
CHANNELS 3 Zrotation Xrotation Yrotation
										End Site
										{
OFFSET 0 -0.409260 -0.000000
										}
									}
								}
								JOINT RThumb
								{
OFFSET 0 0.000000 0.000000
CHANNELS 3 Zrotation Xrotation Yrotation
									End Site
									{
OFFSET 0 -0.415510 0.415510
									}
								}
							}
						}
					}
				}
			}
		}
	}
}
MOTION
Frames: 9
Frame Time: 0.008333333333333333
0.518447 17.918719 4.295554 -117.857955 -78.673260 116.734935 0.000000 0.000000 0.000000 2.314777 -8.049730 -59.756598 10.957570 17.912440 62.641433 -139.858637 -10.500073 -175.165738 0.000546 -0.151976 -0.417535 0.000000 0.000000 0.000000 37.213360 8.231500 -7.099497 -1.771429 -8.372319 23.851158 -0.246190 -0.987749 -9.784902 -1.056063 -6.534151 18.342324 8.315493 1.639398 4.193414 4.541491 2.680203 -1.504373 -0.123552 1.122297 -3.762178 -4.647546 -3.529901 -20.295420 5.259157 -4.717792 18.325965 1.920900 -1.961125 9.363111 0.000000 0.000000 0.000000 14.208822 24.407064 -39.680429 26.948771 -38.128437 9.468215 6.634072 4.174885 -5.879138 0.000000 0.000000 0.000000 -7.125000 0.000000 0.000000 -16.638666 35.467638 -4.038011 0.000000 0.000000 0.000000 -4.817508 -28.845004 50.337353 -73.143974 -58.898381 -45.456254 -12.343805 -5.481232 7.979659 0.000000 0.000000 0.000000 7.125000 0.000000 0.000000 12.376014 37.874902 2.211616
0.432340 17.940956 4.295863 -118.943865 -78.511979 117.686805 0.000000 0.000000 0.000000 2.594532 -8.164189 -61.625993 10.653911 17.760919 61.651698 -139.833312 -10.699218 -175.481813 0.000237 -0.106328 -0.292204 0.000000 0.000000 0.000000 37.352280 8.124701 -6.403292 -1.721087 -8.259157 23.504075 -0.248969 -0.993246 -9.839507 -1.048589 -6.511852 18.276972 8.484680 1.782395 4.324242 4.466873 2.891208 -1.457119 -0.311455 1.223290 -3.762734 -4.664039 -3.596304 -20.310059 5.318270 -4.820577 18.360494 1.929301 -2.003376 9.385534 0.000000 0.000000 0.000000 14.656467 25.127792 -39.514886 27.393512 -38.551312 9.743646 6.705416 3.788454 -5.755413 0.000000 0.000000 0.000000 -7.125000 0.000000 0.000000 -16.554597 35.352314 -4.064634 0.000000 0.000000 0.000000 -4.977924 -29.801013 50.373859 -73.533123 -58.950144 -45.789563 -12.313414 -5.650295 7.908377 0.000000 0.000000 0.000000 7.125000 0.000000 0.000000 12.387441 37.801705 2.236447
0.345689 17.961832 4.296662 -119.927457 -78.367951 118.559215 0.000000 0.000000 0.000000 2.864762 -8.310976 -63.460884 10.393736 17.623820 60.794377 -139.812340 -10.868756 -175.738566 0.000091 -0.070531 -0.193759 0.000000 0.000000 0.000000 37.461158 8.010554 -5.761402 -1.675806 -8.154866 23.185727 -0.251858 -1.012894 -9.903254 -1.042856 -6.494451 18.226042 8.639010 1.915214 4.442553 4.392419 3.088879 -1.434574 -0.490378 1.316936 -3.781250 -4.689348 -3.658951 -20.295310 5.372322 -4.915470 18.389309 1.938790 -2.043667 9.400554 0.000000 0.000000 0.000000 15.092029 25.844928 -39.349180 27.820946 -38.948989 10.011675 6.769086 3.453889 -5.620477 0.000000 0.000000 0.000000 -7.125000 0.000000 0.000000 -16.474774 35.225507 -4.096481 0.000000 0.000000 0.000000 -5.159619 -30.693399 50.384241 -73.813804 -58.986342 -46.030079 -12.314263 -5.834597 7.851245 0.000000 0.000000 0.000000 7.125000 0.000000 0.000000 12.375629 37.744780 2.251863
0.258770 17.982071 4.297672 -120.850279 -78.231337 119.381875 0.000000 0.000000 0.000000 3.135391 -8.475048 -65.282114 10.150799 17.493154 59.990376 -139.793187 -11.025992 -175.970163 0.000000 -0.038104 -0.104594 0.000000 0.000000 0.000000 37.558791 7.886347 -5.146550 -1.632536 -8.054315 22.879339 -0.254826 -1.036719 -9.970260 -1.038136 -6.480124 18.184103 8.789228 2.042660 4.552810 4.319234 3.279001 -1.420011 -0.665158 1.406627 -3.803485 -4.716592 -3.719471 -20.275865 5.420882 -5.005736 18.417579 1.947374 -2.082641 9.414204 0.000000 0.000000 0.000000 15.519532 26.553676 -39.182027 28.237948 -39.333516 10.274479 6.825777 3.142940 -5.481923 0.000000 0.000000 0.000000 -7.125000 0.000000 0.000000 -16.399993 35.094769 -4.130993 0.000000 0.000000 0.000000 -5.351409 -31.563612 50.384296 -74.050762 -59.016601 -46.233165 -12.325190 -6.020195 7.800071 0.000000 0.000000 0.000000 7.125000 0.000000 0.000000 12.356568 37.694457 2.263822
0.171304 18.001035 4.299093 -121.640930 -78.109033 120.094696 0.000000 0.000000 0.000000 3.410760 -8.675491 -67.078004 9.939855 17.375112 59.286141 -139.777497 -11.159846 -176.153495 0.000000 -0.011420 -0.031336 0.000000 0.000000 0.000000 37.636188 7.736617 -4.587165 -1.593004 -7.960920 22.595693 -0.257976 -1.066924 -10.042963 -1.035604 -6.472588 18.161989 8.933522 2.158849 4.645155 4.249557 3.452945 -1.418529 -0.831689 1.487978 -3.829367 -4.745933 -3.775435 -20.254369 5.455905 -5.085974 18.446487 1.952995 -2.118653 9.426805 0.000000 0.000000 0.000000 15.928941 27.240184 -39.010864 28.632162 -39.690606 10.525387 6.865742 2.878751 -5.337444 0.000000 0.000000 0.000000 -7.125000 0.000000 0.000000 -16.337791 34.957332 -4.171020 0.000000 0.000000 0.000000 -5.563526 -32.395587 50.365209 -74.205866 -59.036058 -46.366155 -12.352616 -6.203651 7.760292 0.000000 0.000000 0.000000 7.125000 0.000000 0.000000 12.325930 37.656531 2.269629
0.083441 18.019044 4.300792 -122.313972 -77.997496 120.705801 0.000000 0.000000 0.000000 3.695784 -8.904263 -68.845922 9.755176 17.269149 58.665980 -139.763755 -11.284801 -176.302895 0.000000 0.013437 0.036877 0.000000 0.000000 0.000000 37.701069 7.555936 -4.073591 -1.556054 -7.872371 22.327344 -0.261047 -1.106626 -10.118447 -1.034342 -6.468748 18.150762 9.074916 2.265899 4.724866 4.184768 3.613975 -1.426781 -0.990512 1.562534 -3.858586 -4.776624 -3.828617 -20.231721 5.478850 -5.159180 18.476587 1.955715 -2.152837 9.438968 0.000000 0.000000 0.000000 16.322456 27.906745 -38.840256 29.006787 -40.025406 10.765567 6.857471 2.649488 -5.222963 0.000000 0.000000 0.000000 -7.125000 0.000000 0.000000 -16.320765 34.846317 -4.212358 0.000000 0.000000 0.000000 -5.795986 -33.194743 50.328720 -74.296403 -59.047371 -46.443797 -12.379724 -6.365413 7.720353 0.000000 0.000000 0.000000 7.125000 0.000000 0.000000 12.295531 37.618445 2.275514
-0.004662 18.036488 4.302654 -122.918494 -77.892237 121.257608 0.000000 0.000000 0.000000 3.986555 -9.149414 -70.596900 9.586016 17.170380 58.095577 -139.751137 -11.404947 -176.432238 0.000003 0.037570 0.103093 0.000000 0.000000 0.000000 37.758644 7.356879 -3.586879 -1.520620 -7.786674 22.067993 -0.264066 -1.151938 -10.195526 -1.033829 -6.467090 18.145961 9.214542 2.367600 4.797139 4.122915 3.767431 -1.440675 -1.144697 1.633110 -3.889692 -4.808203 -3.880149 -20.208294 5.494850 -5.228239 18.507288 1.956800 -2.185930 9.450825 0.000000 0.000000 0.000000 16.706438 28.561343 -38.669920 29.369653 -40.346909 10.999273 6.821249 2.440769 -5.125975 0.000000 0.000000 0.000000 -7.125000 0.000000 0.000000 -16.329930 34.750725 -4.254426 0.000000 0.000000 0.000000 -6.040404 -33.974401 50.281971 -74.349124 -59.053916 -46.489020 -12.406296 -6.513836 7.680205 0.000000 0.000000 0.000000 7.125000 0.000000 0.000000 12.265545 37.580124 2.281540
-0.093549 18.052424 4.304878 -123.391032 -77.799212 121.693701 0.000000 0.000000 0.000000 4.293056 -9.421324 -72.290685 9.455126 17.091438 57.650651 -139.740327 -11.530216 -176.511921 0.000127 0.073335 0.201492 0.000000 0.000000 0.000000 37.801574 7.109369 -3.158445 -1.488562 -7.707485 21.829253 -0.266784 -1.211051 -10.274715 -1.035002 -6.470796 18.156709 9.347841 2.458030 4.852175 4.070102 3.904374 -1.464333 -1.284358 1.695188 -3.922244 -4.845327 -3.927403 -20.179262 5.501027 -5.287415 18.535579 1.956800 -2.215950 9.460091 0.000000 0.000000 0.000000 17.061551 29.179780 -38.498077 29.696599 -40.630925 11.211946 6.736934 2.279180 -5.063279 0.000000 0.000000 0.000000 -7.125000 0.000000 0.000000 -16.384596 34.685991 -4.296615 0.000000 0.000000 0.000000 -6.311881 -34.702109 50.210874 -74.321328 -59.050457 -46.465177 -12.418465 -6.609888 7.635175 0.000000 0.000000 0.000000 7.125000 0.000000 0.000000 12.246829 37.535897 2.291424
-0.182660 18.067835 4.307177 -123.826508 -77.711621 122.095487 0.000000 0.000000 0.000000 4.602362 -9.698643 -73.951965 9.339312 17.021011 57.256108 -139.729518 -11.663022 -176.578883 0.000325 0.114809 0.315467 0.000000 0.000000 0.000000 37.838269 6.843477 -2.747540 -1.457780 -7.630926 21.598702 -0.269327 -1.276450 -10.353803 -1.035124 -6.471247 18.157966 9.475230 2.543954 4.905935 4.021271 4.035082 -1.490345 -1.416332 1.754112 -3.957276 -4.884929 -3.972729 -20.152033 5.504274 -5.342458 18.565472 1.956775 -2.244518 9.470007 0.000000 0.000000 0.000000 17.401465 29.781941 -38.323755 30.006217 -40.898139 11.413976 6.626374 2.130087 -5.022294 0.000000 0.000000 0.000000 -7.125000 0.000000 0.000000 -16.464654 34.640889 -4.337927 0.000000 0.000000 0.000000 -6.593150 -35.408531 50.132640 -74.267914 -59.043817 -46.419372 -12.417912 -6.683077 7.589794 0.000000 0.000000 0.000000 7.125000 0.000000 0.000000 12.238630 37.490543 2.303711
